<svg width="48" height="54" viewBox="0 0 48 54" fill="none" xmlns="http://www.w3.org/2000/svg">
<g clip-path="url(#clip0_13_24)">
<path d="M7.83728 13.4068C3.09573 17.5212 0 24.019 0 31.3711C0 34.6537 0.626983 37.7789 1.7438 40.6118L7.83728 36.5648V13.4068Z" fill="white"/>
<path d="M17.6338 30.067V9C15.5569 9.24732 13.578 9.85437 11.7559 10.7762V33.9792L17.6338 30.067Z" fill="white"/>
<path d="M19.5932 33.9567L3.70312 44.4789C4.89831 46.3676 6.32861 48.0538 7.97444 49.4253L25.4712 37.8688L19.5932 33.9567Z" fill="white"/>
<path d="M21.5527 22.2878V30.067L37.4428 40.5893C38.2657 38.4984 38.8144 36.25 39.0495 33.8892L21.5527 22.2878Z" fill="white"/>
<path d="M11.8936 52.0559C14.2643 53.2025 16.8506 53.8546 19.5937 53.8546C26.1378 53.8546 31.9178 50.1448 35.4838 44.5014L29.3903 40.4544L11.8936 52.0559Z" fill="white"/>
<path d="M39.0299 28.6955C37.9522 18.2857 30.6832 10.0342 21.5527 9V17.0941L39.0299 28.6955Z" fill="white"/>
</g>
<defs>
<clipPath id="clip0_13_24">
<rect width="47.0237" height="53.9604" fill="white"/>
</clipPath>
</defs>
</svg>
